<?xml version="1.0" encoding="UTF-8" standalone="no"?>
<!DOCTYPE svg PUBLIC "-//W3C//DTD SVG 1.1//EN"
 "http://www.w3.org/Graphics/SVG/1.1/DTD/svg11.dtd">
<!-- Generated by graphviz version 2.38.0 (20140413.2041)
 -->
<!-- Title: G Pages: 1 -->
<svg width="418pt" height="246pt"
 viewBox="0.00 0.00 417.66 246.00" xmlns="http://www.w3.org/2000/svg" xmlns:xlink="http://www.w3.org/1999/xlink">
<g id="graph0" class="graph" transform="scale(1 1) rotate(0) translate(4 242)">
<title>G</title>
<polygon fill="white" stroke="none" points="-4,4 -4,-242 413.664,-242 413.664,4 -4,4"/>
<g id="clust1" class="cluster"><title>cluster_Global</title>
<path fill="none" stroke="gray" d="M148.834,-8C148.834,-8 389.664,-8 389.664,-8 395.664,-8 401.664,-14 401.664,-20 401.664,-20 401.664,-218 401.664,-218 401.664,-224 395.664,-230 389.664,-230 389.664,-230 148.834,-230 148.834,-230 142.834,-230 136.834,-224 136.834,-218 136.834,-218 136.834,-20 136.834,-20 136.834,-14 142.834,-8 148.834,-8"/>
<text text-anchor="middle" x="269.249" y="-217.2" font-family="Times,serif" font-size="11.00" fill="gray">Global</text>
</g>
<g id="clust2" class="cluster"><title>cluster_\Sensorario</title>
<path fill="none" stroke="gray" d="M156.834,-16C156.834,-16 381.664,-16 381.664,-16 387.664,-16 393.664,-22 393.664,-28 393.664,-28 393.664,-191 393.664,-191 393.664,-197 387.664,-203 381.664,-203 381.664,-203 156.834,-203 156.834,-203 150.834,-203 144.834,-197 144.834,-191 144.834,-191 144.834,-28 144.834,-28 144.834,-22 150.834,-16 156.834,-16"/>
<text text-anchor="middle" x="269.249" y="-190.2" font-family="Times,serif" font-size="11.00" fill="gray">Sensorario</text>
</g>
<g id="clust3" class="cluster"><title>cluster_\Sensorario\ValueObject</title>
<path fill="none" stroke="gray" d="M164.834,-24C164.834,-24 373.664,-24 373.664,-24 379.664,-24 385.664,-30 385.664,-36 385.664,-36 385.664,-164 385.664,-164 385.664,-170 379.664,-176 373.664,-176 373.664,-176 164.834,-176 164.834,-176 158.834,-176 152.834,-170 152.834,-164 152.834,-164 152.834,-36 152.834,-36 152.834,-30 158.834,-24 164.834,-24"/>
<text text-anchor="middle" x="269.249" y="-163.2" font-family="Times,serif" font-size="11.00" fill="gray">ValueObject</text>
</g>
<g id="clust4" class="cluster"><title>cluster_\Sensorario\ValueObject\Exceptions</title>
<path fill="none" stroke="gray" d="M172.834,-78C172.834,-78 365.664,-78 365.664,-78 371.664,-78 377.664,-84 377.664,-90 377.664,-90 377.664,-137 377.664,-137 377.664,-143 371.664,-149 365.664,-149 365.664,-149 172.834,-149 172.834,-149 166.834,-149 160.834,-143 160.834,-137 160.834,-137 160.834,-90 160.834,-90 160.834,-84 166.834,-78 172.834,-78"/>
<text text-anchor="middle" x="269.249" y="-136.2" font-family="Times,serif" font-size="11.00" fill="gray">Exceptions</text>
</g>
<!-- \\Sensorario\\ValueObject\\Exceptions\\NotAllowedParameterEceptions -->
<g id="node1" class="node"><title>\\Sensorario\\ValueObject\\Exceptions\\NotAllowedParameterEceptions</title>
<polygon fill="none" stroke="black" points="369.579,-122 168.919,-122 168.919,-86 369.579,-86 369.579,-122"/>
<text text-anchor="middle" x="269.249" y="-100.7" font-family="Courier,monospace" font-size="11.00">NotAllowedParameterEceptions</text>
</g>
<!-- \\Exception -->
<g id="node3" class="node"><title>\\Exception</title>
<ellipse fill="none" stroke="black" cx="48.417" cy="-104" rx="48.3341" ry="18"/>
<text text-anchor="middle" x="48.417" y="-99.8" font-family="Times,serif" font-size="14.00" fill="gray">\Exception</text>
</g>
<!-- \\Sensorario\\ValueObject\\Exceptions\\NotAllowedParameterEceptions&#45;&gt;\\Exception -->
<g id="edge1" class="edge"><title>\\Sensorario\\ValueObject\\Exceptions\\NotAllowedParameterEceptions&#45;&gt;\\Exception</title>
<path fill="none" stroke="black" d="M168.758,-104C147.705,-104 126.157,-104 107.268,-104"/>
<polygon fill="none" stroke="black" points="107.067,-100.5 97.0673,-104 107.067,-107.5 107.067,-100.5"/>
</g>
<!-- \\Sensorario\\ValueObject\\ValueObject -->
<g id="node2" class="node"><title>\\Sensorario\\ValueObject\\ValueObject</title>
<polygon fill="none" stroke="black" points="313.362,-68 225.136,-68 225.136,-32 313.362,-32 313.362,-68"/>
<text text-anchor="start" x="236.244" y="-52.2" font-family="Courier,monospace" font-size="11.00">«abstract»</text>
<text text-anchor="start" x="232.943" y="-41.2" font-family="Courier,monospace" font-size="11.00">ValueObject</text>
</g>
</g>
</svg>
